<?xml version="1.0" encoding="utf-8"?>
<!-- Generator: Adobe Illustrator 14.0.0, SVG Export Plug-In . SVG Version: 6.00 Build 43363)  -->
<!DOCTYPE svg PUBLIC "-//W3C//DTD SVG 1.1//EN" "http://www.w3.org/Graphics/SVG/1.1/DTD/svg11.dtd">
<svg version="1.1" id="Layer_1" xmlns="http://www.w3.org/2000/svg" xmlns:xlink="http://www.w3.org/1999/xlink" x="0px" y="0px"
	 width="105px" height="75px" viewBox="0 0 105 75" enable-background="new 0 0 105 75" xml:space="preserve">
<path d="M43.083,22.049c0.94,2.431,2.709,5.063,4.608,8.167c1.762,3.046,4.223,6.96,3.792,12.212
	c-0.607,5.233-3.852,8.865-7.277,11.336c-3.505,2.394-7.237,3.681-10.819,4.498c-4.31,0.962-8.881,1.165-13.55,0.206
	c-4.529-0.969-9.808-3.261-12.829-8.513c-2.943-5.44-2.053-11.153-0.169-15.815c2.417-5.277,6.956-8.336,11.383-10.014
	c0.111,0.345-1.124,1.407,0.386,1.033c6.026-1.327,6.12,0.091,6.165,0.642c0.012,0.239-4.133,0.704-2.694,0.802
	c-4.244,0.646-9.629,5.181-6.046,3.089c1.207-0.601,6.108-2.818,7.572-2.266c1.327,0.341-1.049,1.288,0.261,1.632
	c1.175-0.23,3.551-0.294,4.665-0.046c1.001,0.554-1.237,0.921-0.18,1.087c3.145,0.846,5.576,2.711,4.921,7.175
	c-0.407,0.109-0.811,0.844-0.828-1.063c0.015-2.055-0.524-3.206-1.722-4.002c-1.231-0.844-3.437-1.204-5.642-0.935
	c-4.442,0.445-9.103,3.282-10.338,6.632c-1.568,4.47-1.046,8.15,2.327,10.232c3.433,2.243,8.856,2.85,13.699,2.107
	c4.881-0.717,9.654-2.86,11.561-6.122c1.016-1.646,1.148-2.71,0.667-4.562c-0.509-1.842-1.859-4.116-3.363-6.573
	c-1.49-2.484-3.24-5.226-4.35-8.781c-1.11-3.587-1.245-7.892,0.709-11.824c1.743-3.709,6.107-7.536,11.638-6.734
	c5.811,0.643,8.903,6.979,8.418,10.857c-0.351,3.719-0.829,3.776-0.877,2.808c-0.138-1.091,0.088-3.654-1.072-6.338
	c0.601,1.757,0.099,1.862,0.297,3.518c-0.349-0.014-0.487-0.828-1.201-2.373c-0.635-1.399-1.917-4.057-5.149-4.91
	c1.539,0.441,2.906,1.522,3.68,2.905c0.476,1.477-0.467,0.221-0.795,0.458c-0.679-1.216-1.898-1.971-1.989-1.776
	c-0.095,0.156-0.286,0.471-0.381,0.627c1.084,0.469,2.303,2.568,2.288,3.834c-0.151-1.201-0.721-2.239-0.874-2.135
	c-0.159,0.092-0.477,0.275-0.637,0.367c-0.826-1.762-4.011-2.504-5.674-0.942l0.316,0.45c1.576-1.041,4.148-0.869,4.882,0.767
	c-0.611-0.557-0.73-0.366-1.006-0.114c-0.994-1.183-4.078-0.905-4.884,1.974c0.401-0.812,0.962-1.407,1.535-1.874
	c-0.293,0.745-1.167,1.797-1.631,3.302C42.409,18.68,42.461,20.561,43.083,22.049z"/>
<path d="M61.176,28.301c-1.567,3.618-3.119,7.477-4.348,11.426c-1.129,3.809-2.104,8.354-1.013,10.651
	c0.293,0.644,0.711,1.345,0.738,1.264c-0.229,0.247-0.358,0.799-0.273,0.377c0.021-0.463-0.085-0.459,0.152-0.493
	c0.773-0.182,2.432-1.661,3.643-3.094c2.592-3.015,4.794-6.642,6.688-10.122c2.245-4.227,4.394-8.673,6.455-13.212
	c1.026-2.265,2.046-4.575,2.983-6.845l0.169-0.418l0.044-0.104l0.021-0.052c3.685,1.217-8.244-2.748,8.265,2.729l-0.005,0.015
	l-0.006,0.031L84.629,20.7l-0.246,0.982l-0.516,1.941c-0.35,1.291-0.73,2.543-1.103,3.788c-3.123,9.687-5.841,19.429-3.857,27.081
	c-0.367,0.129-1.243-1.013-1.058,0.311c1.324,5.239,1.551,5.494,0.749,5.979c-0.461,0.312-2.314-3.947-1.915-2.423
	c-2.43-4.072-2.044-12.366-2.422-7.468c-0.614,1.76,1.509,7.859,2.235,9.393c0.39,1.764-1.812-0.918-1.412,0.858
	c0.857,1.584,3.239,4.294,4.706,5.371c1.246,1.416-2.14-0.306-0.683,0.867c3.957,4.174,13.528,5.931,20.16,1.46
	c0.017,0.352,2.177-0.301-1.32,1.716c-3.951,2.049-9.015,2.426-13.389,1.055c-4.376-1.428-8.036-4.29-10.575-7.86
	c-2.618-3.457-4.064-8.028-4.325-12.175c-0.33-4.038,0.029-8.064,0.716-11.903c1.412-7.692,4.173-14.618,5.797-21.268l0.02-0.079
	l0.01-0.039c16.636,5.497,4.603,1.548,8.311,2.786l-0.068,0.167l-0.141,0.334l-0.276,0.657l-0.559,1.292l-1.139,2.55
	c-0.771,1.691-1.557,3.37-2.368,5.042c-1.625,3.34-3.318,6.653-5.158,9.929c-1.851,3.275-3.79,6.517-6.112,9.697
	c-1.172,1.59-2.396,3.166-3.948,4.719c-1.657,1.475-3.143,3.273-6.9,4.2c-1.853,0.513-4.625-0.126-6.213-1.395
	c-1.604-1.239-2.472-2.642-3.013-3.773c-1.166-2.128-1.753-5.438-1.578-7.51c0.207-4.547,1.354-8.311,2.584-12.002
	c1.283-3.648,2.79-7.117,4.428-10.514c0.818-1.682,1.707-3.396,2.593-5.019c1.143-2.031,2.302-3.56,3.562-5.14
	c2.558-3.067,5.273-5.928,9.107-8.326c1.946-1.116,4.285-2.369,7.736-2.216c3.647,0.092,6.727,3.036,7.79,5.261
	c1.937,4.255,1.323,4.488,0.847,3.496C85,11.539,83.97,8.317,80.255,6.257c2.291,1.387,1.816,1.9,3.147,3.587
	C83.126,10.01,82.472,9.149,80.61,7.9c-1.918-1.441-5.711-1.458-8.654,0.474c1.557-0.809,3.384-1.499,5.446-1.209
	c1.922,0.667-0.156,0.509-0.146,0.906c-1.745-0.263-3.36,0.451-3.279,0.598c0.062,0.172,0.188,0.517,0.25,0.689
	c1.461-0.8,4.436-0.426,5.292,0.984C78.542,9.2,77.092,8.964,77.082,9.16c-0.028,0.181-0.087,0.543-0.116,0.726
	c-2.19-0.364-6.532,2.28-8.563,4.626l0.383,0.396c2.196-2.04,6.216-4.983,8.095-4.479c-0.951,0.12-0.948,0.395-0.89,0.738
	c-2.97,0.699-7.255,3.97-9.645,7.765c0.967-1.181,2.001-2.317,3.078-3.363C67.619,18.264,62.911,23.538,61.176,28.301z"/>
</svg>
