<?xml version="1.0" encoding="utf-8"?>
<!-- Generator: Adobe Illustrator 24.2.2, SVG Export Plug-In . SVG Version: 6.00 Build 0)  -->
<svg version="1.1" id="Layer_1" xmlns="http://www.w3.org/2000/svg" xmlns:xlink="http://www.w3.org/1999/xlink" x="0px" y="0px"
	 viewBox="0 0 544.17 760.22" style="enable-background:new 0 0 544.17 760.22;" xml:space="preserve">
<style type="text/css">
	.st0{fill:none;}
	.st1{fill:#D0CD3F;}
	.st2{fill:#CAB32E;}
	.st3{fill:#ECD100;}
	.st4{fill:#140C0C;}
	.st5{fill:#FBAD21;}
	.st6{fill:url(#SVGID_1_);}
	.st7{fill:#F9D6B2;}
	.st8{fill:#E2E1E1;}
	.st9{fill:#E4C4A2;}
	.st10{fill:#E5D0C9;}
	.st11{fill:#371921;}
	.st12{fill:#250E15;}
	.st13{fill:#2B121A;}
	.st14{fill:#4B232E;}
</style>
<pattern  x="0" width="74.8" height="86.37" patternUnits="userSpaceOnUse" id="Stars_Hex_Triangle_Color" viewBox="6.23 -86.37 74.8 86.37" style="overflow:visible;">
	<g>
		<rect x="6.23" y="-86.37" class="st0" width="74.8" height="86.37"/>
		<g>
			<polygon class="st1" points="81.04,-21.59 87.27,-10.8 74.8,-10.8 			"/>
			<polygon class="st2" points="81.04,-21.59 87.27,-32.39 74.8,-32.39 			"/>
			<polygon class="st1" points="81.04,-64.78 87.27,-53.98 74.8,-53.98 			"/>
			<polygon class="st2" points="81.04,-64.78 87.27,-75.58 74.8,-75.58 			"/>
		</g>
		<g>
			<polygon class="st3" points="18.7,0 24.93,-10.8 12.47,-10.8 			"/>
			<polygon class="st3" points="43.63,0 49.87,-10.8 37.4,-10.8 			"/>
			<polygon class="st3" points="68.57,0 74.8,-10.8 62.34,-10.8 			"/>
			<polygon class="st1" points="31.17,-21.59 37.4,-10.8 24.93,-10.8 			"/>
			<polygon class="st2" points="31.17,-21.59 37.4,-32.39 24.93,-32.39 			"/>
			<polygon class="st1" points="56.1,-21.59 62.34,-10.8 49.87,-10.8 			"/>
			<polygon class="st2" points="56.1,-21.59 62.34,-32.39 49.87,-32.39 			"/>
			<polygon class="st1" points="81.04,-21.59 87.27,-10.8 74.8,-10.8 			"/>
			<polygon class="st2" points="81.04,-21.59 87.27,-32.39 74.8,-32.39 			"/>
			<polygon class="st3" points="18.7,-43.19 24.93,-32.39 12.47,-32.39 			"/>
			<polygon class="st3" points="18.7,-43.19 24.93,-53.98 12.47,-53.98 			"/>
			<polygon class="st3" points="43.63,-43.19 49.87,-32.39 37.4,-32.39 			"/>
			<polygon class="st3" points="43.63,-43.19 49.87,-53.98 37.4,-53.98 			"/>
			<polygon class="st3" points="68.57,-43.19 74.8,-32.39 62.34,-32.39 			"/>
			<polygon class="st3" points="68.57,-43.19 74.8,-53.98 62.34,-53.98 			"/>
			<polygon class="st1" points="6.23,-21.59 12.47,-10.8 0,-10.8 			"/>
			<polygon class="st2" points="6.23,-21.59 12.47,-32.39 0,-32.39 			"/>
			<polygon class="st1" points="31.17,-64.78 37.4,-53.98 24.93,-53.98 			"/>
			<polygon class="st2" points="31.17,-64.78 37.4,-75.58 24.93,-75.58 			"/>
			<polygon class="st1" points="56.1,-64.78 62.34,-53.98 49.87,-53.98 			"/>
			<polygon class="st2" points="56.1,-64.78 62.34,-75.58 49.87,-75.58 			"/>
			<polygon class="st1" points="81.04,-64.78 87.27,-53.98 74.8,-53.98 			"/>
			<polygon class="st2" points="81.04,-64.78 87.27,-75.58 74.8,-75.58 			"/>
			<polygon class="st3" points="18.7,-86.37 24.93,-75.58 12.47,-75.58 			"/>
			<polygon class="st3" points="43.63,-86.37 49.87,-75.58 37.4,-75.58 			"/>
			<polygon class="st3" points="68.57,-86.37 74.8,-75.58 62.34,-75.58 			"/>
			<polygon class="st1" points="6.23,-64.78 12.47,-53.98 0,-53.98 			"/>
			<polygon class="st2" points="6.23,-64.78 12.47,-75.58 0,-75.58 			"/>
		</g>
		<g>
			<polygon class="st1" points="6.23,-21.59 12.47,-10.8 0,-10.8 			"/>
			<polygon class="st2" points="6.23,-21.59 12.47,-32.39 0,-32.39 			"/>
			<polygon class="st1" points="6.23,-64.78 12.47,-53.98 0,-53.98 			"/>
			<polygon class="st2" points="6.23,-64.78 12.47,-75.58 0,-75.58 			"/>
		</g>
	</g>
</pattern>
<g>
	<path class="st4" d="M125.37,708.75c-1.45,3.03-3.46,5.2-7.2,4.28c-3.55-0.88-5.08-3.58-4.99-6.9c0.07-2.68-0.44-3.74-3.36-4.35
		c-39.77-8.31-55.45-37.12-61.17-73.53c-7.83-49.88,1.6-98.11,16.1-145.55c11.97-39.13,27.4-76.87,53.32-109.13
		c14.33-17.83,31.02-32.9,55.86-34.14c1.57-0.08,5.42-1.08,4.19-2.16c-3.95-3.46,3.22-7.78-2.1-11.17
		c-12.77-8.14-16.9-21.06-17.61-35.51c-0.7-14.22,0.25-28.2,6.01-41.41c1.65-3.78,0.75-6.89-0.3-10.51
		c-15.96-55.11-8.87-106.81,23.59-154.51C225,29.4,289.41,28.49,334.99,55.68c9.67,5.77,19.08,10.34,30.68,11.65
		c30.36,3.41,49.26,27.16,46.56,57.57c-1.11,12.5-1.76,25.57-12.4,34.81c-2.21,1.92-0.83,3.44,0.05,5.09
		c20.5,38.38,19.9,78.96,12.08,120.12c-2.51,13.21-6.32,26.18-9.91,39.16c-2.78,10.03-6.28,10.88-13.58,3.73
		c-5.68-5.56-12.26-8.44-20.35-8.74c-8.4-0.31-16.69-3.59-25.1,0.93c-3.13,1.68-4.04,2.63-2.65,6.07
		c4.34,10.69,6.98,12.34,18.74,11.34c7.08-0.61,14.09,0.14,20.7,2.89c3.72,1.55,7.62,4.03,7.73,8.24c0.21,8.06,5.24,7.76,11.04,8.35
		c20.91,2.13,36.79,13.02,48.79,29.82c14.97,20.95,21.93,45.38,29.16,69.55c7.51,25.11,16.03,49.53,31.34,71.28
		c9.02,12.81,12.28,27.2,3.94,42.06c-1.5,2.67-0.68,4.65,0.23,7.11c8.17,22.03,5.35,42.98-6.08,63.23
		c-7.78,13.78-16.87,26.61-26.66,38.98c-1.89,2.39-4.17,4.83-6.81,6.18c-5.66,2.88-5.24,6.79-2.42,11.01
		c2.35,3.53,6.14,6.96,1.76,10.92c-5.15,4.65-8.56-0.23-12.08-3.3c-0.8-3.13-1.6-6.25-2.39-9.35c-23.83,7.97-47.24,3.86-70.29-1.52
		c-39.74-9.28-78.08-22.83-114.68-41c-9.49-4.71-18.41-5.65-28.04-0.36c-12.3,6.76-24.99,12.8-37.44,19.29
		c-24.68,12.87-49.32,25.87-77.24,30.37C124.29,702.01,124.45,704.89,125.37,708.75z M216.18,354.66c-3.39-2.89-2.89-5.75,0.18-8.46
		c2.1-1.86,4.15-3.88,6.54-5.28c3.35-1.96,2.46-4.51,1.71-7.24c-0.45-1.66-0.94-3.74-2.72-3.88c-2.91-0.22-3,2.84-4.06,4.64
		c-1.27,2.17-2.81,2.45-5.36,2.67c-7.55,0.66-9.46,5.77-4.78,11.72c2.41,3.07,4.76,6.27,8.43,8.06
		c12.76,11.65,27.48,20.06,43.8,26.81c2.44-9.58,4.12-19,8.16-27.68c1.06-2.28,0.24-3.47-2.11-4.42c-4.72-1.92-8.83-3.19-12,2.63
		c-2.27,4.17-5.29,7.95-8.08,11.82c-1.8,2.5-3.69,5.6-7.41,3.18c-3.89-2.53-2.47-5.62-0.34-8.66c3.68-5.26,8.49-9.45,14.43-14.29
		c-6.4-1.79-11.25-10.6-16.39,0.27c-0.67,1.42-2.98,2.07-4.54,1.06c-3.68-2.38-5.59-0.02-7.71,2.36
		C221.84,352.32,219.53,354.37,216.18,354.66z M393.86,245.03c-0.34-3.92-0.9-7.83-0.96-11.75c-0.16-9.88-5.6-14.55-14.59-17.73
		c-17.82-6.31-35.24-4.99-52.88,0.12c-18.9,5.48-37.92,10.19-58.45,6.23c0,2.07-0.11,3.71,0.02,5.34
		c1.49,19.89-6.25,36.37-19.79,50.06c-5.08,5.13-3.27,6.93,0.93,10.7c19.9,17.89,44.56,20.31,69.56,23.63
		c26.16,3.47,44.49-7.15,59.51-26.77c8.35-10.9,13.03-23.4,15.95-36.66C393.4,247.15,393.63,246.09,393.86,245.03z M505.27,579.15
		c-3.77,1.35-5.59,7.22-9.71,3.77c-3.33-2.79,0.16-6.18,1.14-9.17c1.05-3.2,2.29-6.35,3.75-9.38c5.46-11.36,4.05-22.1-3.78-31.58
		c-16.97-20.55-24.82-45.08-31.69-70.13c-6.09-22.19-11.14-44.78-22.17-65.27c-10.68-19.86-26.34-33.3-49.05-37.85
		c-4.63-0.93-6.9-0.55-9.32,3.85c-10.37,18.84-26.75,30.15-47.3,35.35c-47.07,11.89-108.95-11.85-136.83-52.14
		c-1.49-2.15-2.13-5.72-5.91-5c-16.14,3.07-32.88,3.28-46.78,14.68c-15.79,12.95-28.41,28.28-37.65,46.18
		c-24.27,47.02-41.59,96.52-49.14,149c-4.74,32.91-3.67,65.8,6.47,97.85c8.99,28.44,31.15,42.99,59.85,39.2
		c11.49-1.52,22.14-6.26,32.8-10.58c31.61-12.8,61.06-29.92,90.94-46.16c33.4-18.15,67.36-35.04,104.94-42.88
		c19.4-4.04,19.86-4.38,14.34-23.68c-0.23-0.81-0.58-1.6-0.71-2.42c-0.69-4.19-3.16-5.32-7.19-4.86
		c-9.23,1.06-18.54,1.43-27.72,2.81c-39.01,5.84-76.59,17.63-114.52,27.94c-4.03,1.09-5.74,3.4-7.44,6.98
		c-6.75,14.22-17.26,25.79-28.63,36.28c-9.55,8.81-20.57,6.04-26.15-5.41c-2.58,2.25-4.91,4.76-7.7,6.6
		c-4.08,2.7-8.25,7.04-13.62,3.08c-5.21-3.84-3.85-9.52-2.9-14.81c0.62-3.47,3.96-6.27,2.55-10.7c-3.95,2.48-7.61,5.07-11.54,7.16
		c-2.83,1.51-5.83,4.33-9.28,1.9c-3.38-2.38-2.06-6.05-1.64-9.38c2.23-17.77,13-30.23,26.11-40.95c4.08-3.34,6.49-7.2,6.55-12.03
		c0.16-13.37,4.19-26.09,6.13-39.15c0.91-6.08,1.23-12.93,8.27-18.46c2.04,20.09-3.65,38.44-4.15,57.43
		c8.29-2.47,15.8-5.94,24.13-5.94c1.42,0,2.78-0.34,3.21-2.06c3.16-12.67,13.36-12.01,22.98-11.78c6.72,0.16,13.77,2.87,20.05,1.54
		c20.74-4.4,41.57-3.11,62.33-2.23c14.55,0.62,29.54,1.63,42.92,7.96c8.05,3.81,15.56,4.81,24.1,3.64
		c3.94-0.54,7.67-1.55,11.45-2.49c8.12-2,16.69-1.47,22.57,3.65c7.04,6.12,15.82,8.32,23.04,13.49c6.43,4.6,7.46,1.18,7.17-4.48
		c-0.65-12.67-1.08-25.36-2.14-37.99c-1.91-22.74-5.04-45.4-4.18-68.31c0.13-3.35-0.33-6.84,2.54-9.69
		c2.94,8.34,3.81,16.99,5.04,25.55c4.88,33.94,13.27,67.48,11.16,102.22c-0.43,7.01,0.93,14.17,3.55,20.7
		c3.22,8.05,0.04,11.42-7.44,13.26c-17.29,4.25-33.48,0.86-49.04-6.76c-4.08-2-7.58-2.19-11.99-0.73
		c-17.88,5.89-35.58,12.24-52.93,19.5c-16.91,7.08-33.67,14.54-49.95,24.15c31.49,16.67,65.13,24.89,98.16,34.8
		c23.81,7.14,48.06,11.88,73.07,11.69c11.6-0.09,21.51-4.11,29.09-13.03c10.4-12.25,20.27-24.91,28.73-38.62
		C504.81,618.07,509.37,599.68,505.27,579.15z M256.17,136.36c-4.98,5.45-9.28,10.25-13.69,14.95c-1.98,2.11-3.49,4.11-3.16,7.37
		c0.95,9.46-1.47,18.36-4.84,27.13c-2.15,5.6-4.99,11.18-0.28,17.27c2.59,3.35-0.98,4.71-5.84,5.91
		c23.24,5.43,43.93,11.88,66.04,9.73c6.84-0.66,11.12-1.94,7.94-10.15c-0.74-1.91-0.18-4.51,0.3-6.68c0.76-3.47,2.71-6.7,6.46-6.84
		c3.91-0.14,5.88,3.31,6.59,6.65c0.78,3.63,0.63,7.46,0.9,11.28c8.03-1.86,15.39-3.54,22.74-5.26c7.81-1.83,15.64-1.8,23.49-0.28
		c3.27,0.63,3.64-1.36,3.93-3.87c0.52-4.51,2.46-9.04,7.49-8.38c4.63,0.61,6.63,5.32,6.15,9.83c-0.67,6.24,2.57,8.48,7.87,9.52
		c1.09-3.19,0.29-6.24,0-9.27c-0.32-3.36-0.9-6.71-1.06-10.08c-0.67-13.67-1.42-14.62-14.96-17.89c-2.19-0.53-4.36-1.21-6.59-1.46
		c-3.38-0.39-6.58-1.2-5.86-5.38c0.88-5.08,5.16-3.76,8.14-2.91c5.81,1.64,11.42,4,18.34,6.51c-2.21-4.39,0.75-7.77,0.58-12.14
		c-5.57,0-10.66-0.37-15.67,0.09c-6.14,0.56-9.73-1.07-9.36-7.94c0.09-1.66-0.15-3.71-2.33-3.88c-2.95-0.23-3,2.28-2.74,4.11
		c0.83,5.73-2.15,6.45-6.87,6.16c-6.75-0.42-13.58-0.86-20.28-0.25c-6.27,0.57-9.74-1.71-11.77-8.78
		c-0.33,11.64-7.89,10.26-14.69,10.25c-11.57-0.01-23.17,0.29-34.48,2.73c-5.37,1.16-6.27-1.03-6.89-5.36
		C260.69,151.56,259.39,144.08,256.17,136.36z M123.07,608.09c10.07-5.67,17.2-13.15,24.01-21.01c2.06-2.38,3.5-6.79,7.77-4.31
		c4.5,2.61,1.77,6.39,0.47,9.66c-3.64,9.11-7.4,18.18-11.03,27.29c-0.63,1.57-2.37,3.64,1.2,4.49c9.27-7.71,15.78-17.36,20.21-28.54
		c1.3-3.28,3.03-6.6,7.31-5.2c4.71,1.54,2.92,5.58,2.12,8.61c-1.64,6.23-3.96,12.28-5.63,18.5c-0.81,3.03-3.35,7.08,0.4,9.17
		c3.13,1.75,6.41-1.08,8.99-3.22c6.77-5.64,12.74-12.25,16.87-19.89c7.95-14.73,20.68-21.14,36.34-23.48
		c0.73-0.11,1.41-0.54,2.16-0.84c-11.73-17.4-42.6-26.08-68.22-19.35C144.83,565.53,124.8,587.41,123.07,608.09z M254.11,305.8
		c-1.87,8.93-4.35,17.22-8.2,24.97c-1.84,3.71-1.13,5.31,2.63,6.74c29.38,11.21,59.49,15.78,90.8,10.81c3.8-0.6,5.02-1.44,2.61-5.23
		c-2.69-4.23-5.81-8.66-6.76-13.4c-1.45-7.25-5.72-8.12-11.78-8.4C299.53,320.18,275.89,317.73,254.11,305.8z M197.45,218.46
		c-0.2,16.6,8,22.99,22.32,18.07c6.03-2.07,10.14,1.54,8.04,8.03c-1.23,3.81-0.74,6.07,1.57,8.82c4.35,5.2,7.56,11.16,10.05,17.42
		c1.21,3.04,2.11,4.65,4.99,1.59c10.73-11.36,17.27-24.68,19.16-40.26c0.43-3.5-0.81-4.98-4.4-5.51
		c-8.86-1.31-17.67-3.01-26.48-4.65c-1.99-0.37-3.42-0.95-4.69,1.68c-3.46,7.17-8.33,5.33-11.26,0.11
		c-3.14-5.61-7.87-7.46-13.28-9.13C199.18,213.32,196.24,213.32,197.45,218.46z M238.29,542.1c8.45,3.62,18.58,5.65,23.98,12.78
		c8.51,11.25,17.29,9.05,28.2,5.49c12.29-4.02,25.16-6.25,39.04-9.56C298.88,540.72,268.74,540.66,238.29,542.1z M263.76,384.89
		c8.96,3.92,17.78,5.55,26.54,7.36c6.22,1.28,11.17,1.27,9.14-7.76c-0.84-3.74-0.17-7.84-0.09-11.77
		c0.27-14.1,0.25-13.89-13.42-16.1c-4.45-0.72-6.92-0.35-9.06,4.26C273.1,368.97,268.34,376.62,263.76,384.89z M315.98,394.03
		c4.81,0.73,10.54-1.29,16.42-1.77c3.13-0.25,4.45-1.53,3.43-5.01c-2.35-8.06-4.38-16.22-6.51-24.35c-0.73-2.79-2.11-3.96-5.35-3.96
		c-13.84-0.01-16.1,1.8-17.89,15.81c-0.32,2.51-0.29,5.07-0.71,7.56C303.37,394.09,303.34,394.08,315.98,394.03z M353.2,354.9
		c-3.08,0.6-6.35,1.54-9.68,1.83c-5.88,0.51-7.64,2.87-6.11,8.9c1.57,6.21,2.06,12.75,2.52,19.18c0.32,4.51,2.37,5.28,6,3.78
		c9.26-3.83,16.92-9.91,23.59-17.29c0.67-0.74,1.16-1.94,1.16-2.92C370.67,366.94,354.96,354.88,353.2,354.9z M261.74,221.03
		c-5.53-1.28-11.1-2.4-16.57-3.88c-15.64-4.22-31.22-8.64-46.88-12.8c-2.03-0.54-5.04-3.67-6.4,0.26c-1.57,4.56,3.43,3.34,5.36,4.45
		c2.83,1.63,6.3,2.17,9.53,3.08C224.66,217.24,242.74,221.3,261.74,221.03z M400.91,561.59c1.44,2.82,2.72,4.96,3.66,7.23
		c2.59,6.25,4,12.86,4.44,19.55c0.4,6.14,4.9,4.3,7.99,4.45c1.92,0.09,5.5,1.23,5.45-3.12
		C422.33,579.62,410.38,563.84,400.91,561.59z M263.55,567.86c-7.21-15.68-19.03-5.66-30.02-6
		C246.89,576.33,248.56,576.62,263.55,567.86z M377.16,567.09c2.28,4.24,0.55,11.03,5.64,12.7c4.32,1.42,11.93,3.3,13.84-3.11
		c1.92-6.49-4.32-8.85-9.85-9.76C383.83,566.43,380.72,565.51,377.16,567.09z M239.31,551.82c-15.99-7.36-18.42-7.18-27.43,1.89
		C221.41,560.61,230.59,559.35,239.31,551.82z M193.39,129.24c0.81-1.53,1.81-3.16,2.57-4.9c4.28-9.7,7.2-20.1,14.75-28.1
		c1.25-1.32,3.56-3.02,1.26-4.83c-2.03-1.6-3.52,0.78-4.79,2.11c-8.63,9-11.71,20.87-16.34,31.93
		C190.18,127.01,190.55,128.87,193.39,129.24z M373.14,366.52c3.99-4.56,8.3-8.76,7.17-15.18c-0.93-5.25-6.23-4.74-10.1-5.73
		c-4.57-1.17-6.49-0.01-4.11,4.94C368.49,355.52,370.57,360.63,373.14,366.52z M391.83,559.52c-6.34-7.78-12.47-11.53-21.13-9.18
		c0.87,4.53-0.24,11.19,5.67,11.36C380.65,561.83,385.46,559.93,391.83,559.52z M333.54,91.11c-1.65-0.32-2.66,0.13-3.23,1.19
		c-0.72,1.33,0.35,2.18,1.25,2.68c7.89,4.36,11.63,11.84,14.98,19.65c0.61,1.41,1.29,3.38,3.45,2.26c1.95-1.01,1.37-2.57,0.6-4.29
		c-2.52-5.64-5.05-11.25-9.32-15.85C338.97,94.26,336.37,92.18,333.54,91.11z M347.11,85.71c-0.3,0.14-1.61,0.35-2.05,1.09
		c-0.56,0.93-0.15,2.21,1.09,2.74c7.2,3.09,12.34,8.54,16.95,14.63c0.72,0.95,1.91,1.28,2.98,0.64c1.16-0.7,0.92-1.88,0.59-2.99
		C365.3,97.18,352.36,86.12,347.11,85.71z M186.1,335.94c13.14,0.8,24.63-8.55,20.69-16.5C200.6,325.81,195.05,332.92,186.1,335.94z
		 M208.04,545.1c-7.56-0.43-14.71-1.77-19.41,5.6C194.8,548.55,204.15,557.69,208.04,545.1z M194.27,260.13
		c-2.79,0.45-2.57,2.11-1.91,3.78c0.9,2.31,1.97,4.56,2.95,6.84c1.01,2.36,0.86,7.08,4.09,5.95c4.02-1.4,0.61-5.17-0.14-7.73
		C198.3,265.66,197.61,261.97,194.27,260.13z M229.6,206.94c-7.4-5.63-13.46-6.87-22.18-2.65
		C215.64,204.23,221.08,208.96,229.6,206.94z"/>
	<path class="st5" d="M125.37,708.75c-0.92-3.86-1.08-6.74,4.3-7.61c27.93-4.5,52.57-17.49,77.24-30.37
		c12.45-6.49,25.14-12.53,37.44-19.29c9.63-5.29,18.55-4.35,28.04,0.36c36.6,18.17,74.94,31.72,114.68,41
		c23.05,5.38,46.45,9.49,70.29,1.52c0.79,3.1,1.59,6.22,2.39,9.35c-12.1,3.25-24.61,2.21-36.89,3.08
		c-29.17,2.07-58.43,2.78-87.65,4.09c-44.43,1.99-88.88,3.7-133.33,2.49C176.36,712.68,150.64,713.95,125.37,708.75z M268.3,689.35
		c0.91,4,1.73,8.86,7.84,9.51c3.56,0.38,6.07-0.98,6.1-5.01c0.05-6.54-5.35-8.14-9.85-9.84
		C268.97,682.73,268.46,685.92,268.3,689.35z M350.16,696.51c-0.93-3.48-3.77-5.96-7.91-6.66c-2.82-0.48-3.1,1.87-2.85,3.92
		c0.45,3.75,1.43,7.5,5.84,8.16C348.14,702.36,349.84,700.39,350.16,696.51z M210.9,695.32c-4.46-1.47-7.55,0.05-9.93,3.2
		c-1.19,1.57-2.05,3.39-0.68,5.44c0.99,1.48,2.19,2.74,4.03,2.49c2.17-0.3,3.86-1.84,3.48-4.01
		C207.25,699.35,210.11,697.87,210.9,695.32z"/>
	<path class="st5" d="M505.27,579.15c4.1,20.53-0.46,38.92-11.08,56.11c-8.46,13.71-18.32,26.37-28.73,38.62
		c-7.57,8.92-17.48,12.93-29.09,13.03c-25.01,0.2-49.26-4.54-73.07-11.69c-33.03-9.91-66.67-18.13-98.16-34.8
		c16.28-9.61,33.04-17.07,49.95-24.15c17.35-7.26,35.05-13.62,52.93-19.5c4.42-1.45,7.91-1.26,11.99,0.73
		c15.56,7.63,31.75,11.01,49.04,6.76c7.49-1.84,10.67-5.21,7.44-13.26c-2.62-6.53-3.97-13.69-3.55-20.7
		c2.11-34.74-6.27-68.28-11.16-102.22c-1.23-8.55-2.11-17.2-5.04-25.55c-2.87,2.84-2.41,6.33-2.54,9.69
		c-0.86,22.91,2.27,45.57,4.18,68.31c1.06,12.63,1.48,25.32,2.14,37.99c0.29,5.67-0.74,9.09-7.17,4.48
		c-7.22-5.17-16-7.37-23.04-13.49c-5.89-5.11-14.45-5.65-22.57-3.65c-3.78,0.93-7.51,1.95-11.45,2.49
		c-8.54,1.17-16.05,0.16-24.1-3.64c-13.38-6.33-28.37-7.34-42.92-7.96c-20.76-0.88-41.59-2.17-62.33,2.23
		c-6.28,1.33-13.33-1.38-20.05-1.54c-9.63-0.23-19.83-0.89-22.98,11.78c-0.43,1.73-1.79,2.06-3.21,2.06
		c-8.33,0-15.83,3.47-24.13,5.94c0.5-18.99,6.19-37.34,4.15-57.43c-7.04,5.53-7.36,12.38-8.27,18.46
		c-1.95,13.06-5.97,25.78-6.13,39.15c-0.06,4.83-2.47,8.7-6.55,12.03c-13.11,10.72-23.88,23.17-26.11,40.95
		c-0.42,3.32-1.74,7,1.64,9.38c3.45,2.43,6.45-0.4,9.28-1.9c3.92-2.09,7.59-4.67,11.54-7.16c1.41,4.43-1.93,7.24-2.55,10.7
		c-0.95,5.29-2.31,10.96,2.9,14.81c5.37,3.96,9.54-0.37,13.62-3.08c2.78-1.84,5.12-4.36,7.7-6.6c5.58,11.45,16.61,14.22,26.15,5.41
		c11.37-10.5,21.88-22.06,28.63-36.28c1.7-3.58,3.41-5.89,7.44-6.98c37.93-10.32,75.51-22.1,114.52-27.94
		c9.17-1.37,18.49-1.74,27.72-2.81c4.03-0.46,6.5,0.67,7.19,4.86c0.14,0.82,0.48,1.61,0.71,2.42c5.52,19.31,5.06,19.64-14.34,23.68
		c-37.58,7.83-71.54,24.72-104.94,42.88C221,648,191.56,665.12,159.94,677.92c-10.66,4.32-21.32,9.06-32.8,10.58
		c-28.7,3.79-50.86-10.76-59.85-39.2c-10.13-32.05-11.2-64.95-6.47-97.85c7.55-52.48,24.87-101.98,49.14-149
		c9.24-17.9,21.86-33.23,37.65-46.18c13.9-11.4,30.64-11.6,46.78-14.68c3.78-0.72,4.42,2.85,5.91,5
		c27.88,40.3,89.76,64.03,136.83,52.14c20.55-5.19,36.94-16.5,47.3-35.35c2.42-4.4,4.7-4.78,9.32-3.85
		c22.71,4.55,38.37,18,49.05,37.85c11.03,20.49,16.08,43.08,22.17,65.27c6.87,25.06,14.72,49.58,31.69,70.13
		c7.83,9.48,9.24,20.21,3.78,31.58c-1.46,3.03-2.71,6.19-3.75,9.38c-0.98,2.99-4.47,6.38-1.14,9.17
		C499.68,586.37,501.5,580.5,505.27,579.15z M147.94,417.82c11.27-0.74,19.56-3.15,27.58-6.55c3.36-1.42,4.54-4.26,3.37-7.64
		c-1.32-3.79-4.58-4.17-7.65-2.81C163.07,404.43,155.63,409.17,147.94,417.82z M229.59,416.57c0.79,10.01,4.7,16.97,9.15,23.68
		c2.14,3.23,5.36,4.34,8.69,2.02c3.34-2.33,3.15-5.49,1.1-8.85C244.33,426.51,238.24,421.82,229.59,416.57z M83.3,554.76
		c4.91-0.21,12.74-9.77,12.69-14.69c-0.03-2.96-1.39-3.92-4.2-3.65c-5.56,0.54-14.64,8.42-14.15,12.71
		C78.03,552.56,80.22,554.57,83.3,554.76z M463.48,547.34c0.04,6.9,5.53,14.45,9.74,13.92c3.42-0.42,5.44-2.55,5.35-6.29
		c-0.12-4.65-6.94-12.97-10.63-12.64C464.39,542.64,463.54,545.21,463.48,547.34z M214.63,484.06c-1.08-5.32-2.98-10.45-9-11.54
		c-3.9-0.7-5.49,2.61-4.48,6.02c1.44,4.87-0.61,12.38,7.39,12.99C212.57,491.84,214.91,488.6,214.63,484.06z M114.77,664.85
		c3.47-0.23,5.01-2.17,4.9-5.52c-0.13-4.09-7.49-11.4-11.33-11.26c-2.9,0.1-4.25,2.06-3.58,4.51
		C106.24,658.04,108.13,663.44,114.77,664.85z M425.76,400.09c-6.3,0.44-10.46,0.52-14.55,1.09c-2.6,0.36-4.67,2.08-5.12,4.82
		c-0.46,2.77,1.14,4.94,3.39,6.17c2.38,1.3,4.94,0.83,6.84-1.25C419.07,407.9,421.7,404.76,425.76,400.09z M397.65,502.73
		c-4.71-1.56-8.57-0.5-12.33,0.09c-2.6,0.41-4.35,2.49-4.74,5.26c-0.35,2.5,0.89,4.5,2.93,5.59c2.38,1.27,4.89,0.88,7.02-0.94
		C393.54,510.16,395.62,506.91,397.65,502.73z M354.41,446.63c-3.56,5.88-2.02,10.68,1.11,15.15c1.66,2.37,4.37,2.71,6.68,1.02
		c2.29-1.67,1.58-3.97,0.13-5.92C359.87,453.59,357.31,450.37,354.41,446.63z M424.11,640.77c-2.12,0.33-3.21,1.19-2.18,3.35
		c1.78,3.72,1.32,9.41,7.35,9.51c2.38,0.04,4.19-2.13,3.33-4.71C431.23,644.81,428.47,641.79,424.11,640.77z M348.88,623.6
		c-3.86,4.66-4.74,9.41-4.55,14.44c0.06,1.66,0.54,3.44,2.6,3.78c2.08,0.35,3.03-1.14,3.49-2.79
		C351.83,633.99,352.59,628.96,348.88,623.6z M287.41,470.59c4.38,0.21,8.07-0.45,11.77-1.71c2.47-0.84,4.23-1.94,3.12-4.73
		c-1.05-2.64-3.38-2.66-5.66-1.8C292.72,463.84,289.2,465.84,287.41,470.59z M191.64,648.02c3.03,0.02,5.79-0.58,5.85-4.3
		c0.07-3.82-2.71-4.33-5.76-4.26c-3.3,0.08-7.01,1.21-7.11,4.41C184.53,647.5,188.44,647.98,191.64,648.02z M442.68,483.84
		c5.5,2.64,10.42,1.68,15.17,1.28c1.83-0.15,3.98-1.44,3.41-3.87c-0.53-2.25-2.69-2.86-4.71-2.4
		C452.1,479.89,447.55,480.79,442.68,483.84z M88.9,604.08c3.45-0.16,6.89-0.56,7.22-5.07c0.22-2.99-1.89-3.88-4.43-3.48
		c-3.73,0.58-7.72,2.29-8.42,5.84C82.57,604.97,86.7,603.5,88.9,604.08z M192.2,358.93c-2.2-3.92-6.37-4.57-10.4-5.33
		c-1.75-0.33-4.32,0.55-3.8,2.08c1.33,3.92,4.73,6.02,8.88,6.54C189.22,362.52,191.33,362.1,192.2,358.93z M253.72,600.24
		c-0.52-3.38-3.43-5.3-7.08-6.19c-1.87-0.46-3.46,0.84-3.31,2.72c0.32,3.9,2.25,6.81,6.46,7.38
		C252,604.44,253.6,603.61,253.72,600.24z M340.73,575.62c-0.7-2.87-2.65-4.01-5.48-3.94c-2.54,0.06-6.09,0.57-6.13,2.87
		c-0.07,3.63,3.9,4.14,6.83,4.6C338.37,579.53,340.22,578.3,340.73,575.62z M123.94,459.27c4.43,2.7,8.7,1.81,12.93,0.89
		c2.08-0.45,3.89-1.78,3.13-4.08c-0.65-1.98-2.92-1.46-4.38-1.01C131.67,456.29,127.82,457.85,123.94,459.27z M127.96,496.06
		c2.14,3.97,5.55,4.69,9.25,4.59c2.78-0.08,5.27-1.61,5.11-4.37c-0.17-2.91-3.17-2.65-5.31-2.32
		C134.04,494.43,131.12,495.31,127.96,496.06z M320.98,509.88c-1.4-2.58-2.52-5.91-5.75-7.28c-2.36-1-2.58,1.18-2.58,2.86
		c-0.01,3.49,0.77,6.93,4.28,8.24C318.87,514.42,320.36,512.47,320.98,509.88z M138,374.14c3.23,3.37,6.05,5.41,10.05,3.27
		c1.18-0.63,1.47-1.89,0.65-2.81C145.73,371.28,142.33,372.16,138,374.14z M316.54,433.35c-4.07-0.35-7.6-1.92-9.81,1.86
		c-0.98,1.67,0.13,3.58,1.7,4.11C312.84,440.8,314,437.06,316.54,433.35z M459.88,617.8c4.48,0.98,6.26,4.87,9.63,1.69
		c1.28-1.21,1.7-3.13,0.18-4.38C466.56,612.55,464.25,615.21,459.88,617.8z"/>
	
		<pattern  id="SVGID_1_" xlink:href="#Stars_Hex_Triangle_Color" patternTransform="matrix(1.6937 0 0 1.6937 4532.4233 4248.9082)">
	</pattern>
	<path class="st6" d="M393.16,248.2c-2.92,13.26-7.6,25.76-15.95,36.66c-15.02,19.62-33.35,30.24-59.51,26.77
		c-25-3.32-49.66-5.74-69.56-23.63c-4.2-3.77-6.01-5.57-0.93-10.7c13.54-13.68,21.28-30.17,19.79-50.06
		c-0.12-1.63-0.02-3.27-0.02-5.34c20.53,3.96,39.55-0.76,58.45-6.23c17.63-5.11,35.06-6.43,52.88-0.12
		c8.98,3.18,14.43,7.85,14.59,17.73c0.06,3.92,0.63,7.84,0.96,11.75c-7.34-3.32-15.12-4.5-24.12-5.46
		C376.72,247.26,385.65,245.7,393.16,248.2z M286.93,249.04c11.09,3.79,21.59,2.7,31.5-3.12c1.89-1.11,4.25-2.82,2.56-5.28
		c-1.31-1.91-3.54-0.56-5.28,0.38C306.72,245.9,297.17,248.72,286.93,249.04z"/>
	<path class="st7" d="M256.17,136.36c3.22,7.72,4.51,15.21,5.59,22.7c0.62,4.33,1.52,6.51,6.89,5.36
		c11.32-2.44,22.92-2.74,34.48-2.73c6.81,0.01,14.36,1.39,14.69-10.25c2.03,7.07,5.5,9.35,11.77,8.78
		c6.7-0.61,13.53-0.17,20.28,0.25c4.72,0.29,7.7-0.43,6.87-6.16c-0.27-1.83-0.21-4.34,2.74-4.11c2.18,0.17,2.42,2.22,2.33,3.88
		c-0.37,6.86,3.21,8.5,9.36,7.94c5.01-0.46,10.1-0.09,15.67-0.09c0.17,4.37-2.8,7.75-0.58,12.14c-6.92-2.51-12.53-4.86-18.34-6.51
		c-2.98-0.84-7.26-2.17-8.14,2.91c-0.72,4.17,2.48,4.99,5.86,5.38c2.22,0.25,4.4,0.93,6.59,1.46c13.54,3.27,14.29,4.23,14.96,17.89
		c0.17,3.37,0.74,6.72,1.06,10.08c0.29,3.03,1.1,6.08,0,9.27c-5.29-1.04-8.53-3.28-7.87-9.52c0.48-4.51-1.52-9.22-6.15-9.83
		c-5.03-0.66-6.96,3.86-7.49,8.38c-0.29,2.51-0.66,4.51-3.93,3.87c-7.84-1.52-15.68-1.55-23.49,0.28
		c-7.35,1.72-14.72,3.41-22.74,5.26c-0.26-3.82-0.12-7.65-0.9-11.28c-0.71-3.34-2.68-6.79-6.59-6.65c-3.76,0.13-5.7,3.37-6.46,6.84
		c-0.48,2.17-1.04,4.77-0.3,6.68c3.18,8.22-1.1,9.49-7.94,10.15c-22.1,2.15-42.8-4.3-66.04-9.73c4.85-1.2,8.43-2.56,5.84-5.91
		c-4.72-6.09-1.87-11.67,0.28-17.27c3.37-8.77,5.79-17.67,4.84-27.13c-0.33-3.27,1.18-5.26,3.16-7.37
		C246.9,146.61,251.2,141.81,256.17,136.36z M284.69,186.97c8.35-5.55,17.35-9.03,27.56-9.05c3-0.01,7.11-0.27,6.71-4.48
		c-0.38-4.02-4.13-5.08-7.78-4.53c-11.45,1.72-21.6,5.74-27.64,16.55c-0.29,0.56-0.58,1.11-0.87,1.67
		C283.34,187.07,284.02,187.02,284.69,186.97z"/>
	<path class="st7" d="M123.07,608.09c1.73-20.68,21.76-42.55,42.96-48.12c25.62-6.73,56.49,1.95,68.22,19.35
		c-0.75,0.3-1.43,0.73-2.16,0.84c-15.66,2.34-28.39,8.75-36.34,23.48c-4.12,7.64-10.1,14.25-16.87,19.89
		c-2.58,2.15-5.86,4.97-8.99,3.22c-3.74-2.1-1.21-6.14-0.4-9.17c1.67-6.22,3.99-12.27,5.63-18.5c0.79-3.02,2.59-7.06-2.12-8.61
		c-4.27-1.4-6.01,1.93-7.31,5.2c-4.42,11.18-10.94,20.83-20.21,28.54c-3.57-0.84-1.83-2.92-1.2-4.49
		c3.64-9.11,7.39-18.18,11.03-27.29c1.31-3.27,4.03-7.05-0.47-9.66c-4.27-2.48-5.71,1.93-7.77,4.31
		C140.27,594.94,133.14,602.42,123.07,608.09z"/>
	<path class="st7" d="M254.11,305.8c21.79,11.93,45.43,14.38,69.3,15.5c6.06,0.28,10.33,1.16,11.78,8.4
		c0.95,4.74,4.07,9.17,6.76,13.4c2.41,3.79,1.19,4.62-2.61,5.23c-31.3,4.97-61.42,0.4-90.8-10.81c-3.76-1.43-4.47-3.03-2.63-6.74
		C249.75,323.02,252.23,314.73,254.11,305.8z"/>
	<path class="st7" d="M197.45,218.46c-1.21-5.14,1.73-5.14,6.03-3.82c5.41,1.67,10.14,3.52,13.28,9.13
		c2.93,5.22,7.8,7.06,11.26-0.11c1.27-2.63,2.7-2.05,4.69-1.68c8.81,1.64,17.62,3.33,26.48,4.65c3.59,0.53,4.83,2.01,4.4,5.51
		c-1.89,15.57-8.43,28.9-19.16,40.26c-2.89,3.05-3.78,1.45-4.99-1.59c-2.49-6.27-5.69-12.22-10.05-17.42
		c-2.31-2.76-2.8-5.02-1.57-8.82c2.1-6.5-2.01-10.11-8.04-8.03C205.45,241.45,197.25,235.06,197.45,218.46z"/>
	<path class="st5" d="M238.29,542.1c30.44-1.44,60.59-1.38,91.21,8.7c-13.88,3.31-26.75,5.55-39.04,9.56
		c-10.91,3.57-19.69,5.76-28.2-5.49C256.87,547.75,246.75,545.72,238.29,542.1z"/>
	<path class="st5" d="M216.18,354.66c3.35-0.29,5.66-2.34,7.74-4.68c2.12-2.38,4.03-4.74,7.71-2.36c1.56,1.01,3.87,0.35,4.54-1.06
		c5.14-10.87,9.99-2.06,16.39-0.27c-5.94,4.83-10.75,9.03-14.43,14.29c-2.13,3.04-3.55,6.13,0.34,8.66
		c3.72,2.42,5.61-0.68,7.41-3.18c2.79-3.88,5.81-7.65,8.08-11.82c3.18-5.82,7.29-4.55,12-2.63c2.35,0.96,3.17,2.14,2.11,4.42
		c-4.04,8.68-5.72,18.09-8.16,27.68c-16.32-6.75-31.04-15.16-43.8-26.81C216.14,356.15,216.16,355.41,216.18,354.66z"/>
	<path class="st5" d="M263.76,384.89c4.59-8.27,9.35-15.92,13.11-24.02c2.14-4.6,4.61-4.97,9.06-4.26c13.67,2.21,13.69,2,13.42,16.1
		c-0.08,3.93-0.75,8.03,0.09,11.77c2.03,9.03-2.92,9.05-9.14,7.76C281.53,390.44,272.71,388.81,263.76,384.89z"/>
	<path class="st5" d="M315.98,394.03c-12.64,0.06-12.6,0.06-10.6-11.73c0.42-2.49,0.39-5.05,0.71-7.56
		c1.79-14.01,4.05-15.82,17.89-15.81c3.23,0,4.62,1.17,5.35,3.96c2.13,8.13,4.16,16.29,6.51,24.35c1.01,3.47-0.31,4.75-3.43,5.01
		C326.52,392.73,320.79,394.76,315.98,394.03z"/>
	<path class="st5" d="M353.2,354.9c1.76-0.03,17.47,12.04,17.47,13.48c0,0.98-0.49,2.18-1.16,2.92
		c-6.67,7.38-14.32,13.46-23.59,17.29c-3.63,1.5-5.67,0.73-6-3.78c-0.46-6.43-0.94-12.97-2.52-19.18c-1.53-6.03,0.23-8.39,6.11-8.9
		C346.85,356.44,350.12,355.51,353.2,354.9z"/>
	<path class="st8" d="M261.74,221.03c-19,0.28-37.08-3.79-54.97-8.88c-3.22-0.92-6.7-1.45-9.53-3.08c-1.93-1.11-6.93,0.11-5.36-4.45
		c1.36-3.94,4.36-0.8,6.4-0.26c15.66,4.16,31.24,8.58,46.88,12.8C250.64,218.63,256.21,219.75,261.74,221.03z"/>
	<path class="st7" d="M400.91,561.59c9.47,2.25,21.42,18.02,21.54,28.11c0.05,4.35-3.53,3.22-5.45,3.12
		c-3.09-0.15-7.6,1.68-7.99-4.45c-0.43-6.69-1.84-13.3-4.44-19.55C403.63,566.55,402.36,564.42,400.91,561.59z"/>
	<path class="st5" d="M263.55,567.86c-14.99,8.76-16.67,8.47-30.02-6C244.52,562.2,256.34,552.18,263.55,567.86z"/>
	<path class="st5" d="M216.18,354.66c-0.02,0.74-0.04,1.49-0.06,2.23c-3.66-1.79-6.01-4.99-8.43-8.06
		c-4.68-5.95-2.77-11.06,4.78-11.72c2.55-0.22,4.1-0.51,5.36-2.67c1.05-1.8,1.15-4.86,4.06-4.64c1.78,0.13,2.27,2.22,2.72,3.88
		c0.74,2.73,1.63,5.28-1.71,7.24c-2.39,1.4-4.44,3.43-6.54,5.28C213.29,348.91,212.79,351.77,216.18,354.66z"/>
	<path class="st5" d="M377.16,567.09c3.56-1.58,6.67-0.65,9.63-0.17c5.52,0.91,11.77,3.28,9.85,9.76c-1.9,6.41-9.51,4.53-13.84,3.11
		C377.71,578.12,379.44,571.33,377.16,567.09z"/>
	<path class="st5" d="M239.31,551.82c-8.72,7.53-17.9,8.79-27.43,1.89C220.89,544.64,223.32,544.46,239.31,551.82z"/>
	<path class="st9" d="M193.39,129.24c-2.83-0.37-3.21-2.23-2.55-3.8c4.63-11.06,7.72-22.93,16.34-31.93
		c1.27-1.33,2.77-3.7,4.79-2.11c2.3,1.81-0.01,3.5-1.26,4.83c-7.55,8-10.47,18.4-14.75,28.1
		C195.19,126.08,194.19,127.72,193.39,129.24z"/>
	<path class="st5" d="M373.14,366.52c-2.58-5.89-4.66-11-7.04-15.97c-2.37-4.95-0.45-6.12,4.11-4.94c3.87,1,9.17,0.48,10.1,5.73
		C381.45,357.77,377.13,361.96,373.14,366.52z"/>
	<path class="st5" d="M391.83,559.52c-6.37,0.41-11.18,2.31-15.46,2.19c-5.91-0.18-4.8-6.83-5.67-11.36
		C379.36,548,385.49,551.74,391.83,559.52z"/>
	<path class="st9" d="M333.54,91.11c2.83,1.07,5.43,3.15,7.74,5.64c4.26,4.6,6.8,10.21,9.32,15.85c0.77,1.72,1.35,3.27-0.6,4.29
		c-2.17,1.13-2.84-0.84-3.45-2.26c-3.35-7.81-7.09-15.29-14.98-19.65c-0.91-0.5-1.97-1.35-1.25-2.68
		C330.88,91.24,331.89,90.79,333.54,91.11z"/>
	<path class="st9" d="M347.11,85.71c5.25,0.41,18.19,11.47,19.56,16.11c0.33,1.11,0.57,2.29-0.59,2.99
		c-1.07,0.64-2.26,0.32-2.98-0.64c-4.61-6.09-9.75-11.54-16.95-14.63c-1.24-0.53-1.65-1.81-1.09-2.74
		C345.49,86.06,346.8,85.85,347.11,85.71z"/>
	<path class="st10" d="M186.1,335.94c8.95-3.02,14.5-10.13,20.69-16.5C210.73,327.4,199.24,336.74,186.1,335.94z"/>
	<path class="st5" d="M208.04,545.1c-3.89,12.6-13.24,3.46-19.41,5.6C193.33,543.33,200.48,544.66,208.04,545.1z"/>
	<path class="st11" d="M393.16,248.2c-7.51-2.5-16.44-0.94-23.42-8.64c9,0.96,16.78,2.14,24.12,5.46
		C393.63,246.09,393.4,247.15,393.16,248.2z"/>
	<path class="st9" d="M194.27,260.13c3.33,1.84,4.02,5.52,4.99,8.83c0.75,2.56,4.16,6.33,0.14,7.73c-3.24,1.13-3.08-3.59-4.09-5.95
		c-0.98-2.28-2.05-4.53-2.95-6.84C191.71,262.24,191.48,260.58,194.27,260.13z"/>
	<path class="st9" d="M229.6,206.94c-8.52,2.02-13.96-2.7-22.18-2.65C216.14,200.07,222.2,201.31,229.6,206.94z"/>
	<path class="st12" d="M268.3,689.35c0.16-3.42,0.67-6.62,4.09-5.33c4.51,1.7,9.91,3.29,9.85,9.84c-0.03,4.03-2.54,5.39-6.1,5.01
		C270.02,698.2,269.21,693.35,268.3,689.35z"/>
	<path class="st12" d="M350.16,696.51c-0.32,3.87-2.02,5.85-4.92,5.42c-4.4-0.66-5.39-4.41-5.84-8.16c-0.25-2.06,0.04-4.4,2.85-3.92
		C346.39,690.55,349.23,693.04,350.16,696.51z"/>
	<path class="st11" d="M210.9,695.32c-0.79,2.55-3.65,4.03-3.1,7.12c0.39,2.18-1.3,3.71-3.48,4.01c-1.84,0.25-3.04-1.01-4.03-2.49
		c-1.37-2.05-0.51-3.88,0.68-5.44C203.35,695.38,206.44,693.85,210.9,695.32z"/>
	<path class="st12" d="M147.94,417.82c7.69-8.66,15.13-13.39,23.3-17.01c3.07-1.36,6.33-0.98,7.65,2.81
		c1.18,3.38-0.01,6.22-3.37,7.64C167.5,414.67,159.21,417.08,147.94,417.82z"/>
	<path class="st12" d="M229.59,416.57c8.65,5.25,14.74,9.94,18.94,16.84c2.04,3.36,2.24,6.52-1.1,8.85
		c-3.33,2.32-6.55,1.21-8.69-2.02C234.28,433.54,230.38,426.57,229.59,416.57z"/>
	<path class="st12" d="M83.3,554.76c-3.08-0.2-5.27-2.21-5.66-5.63c-0.49-4.29,8.59-12.18,14.15-12.71c2.81-0.27,4.17,0.69,4.2,3.65
		C96.03,544.99,88.2,554.55,83.3,554.76z"/>
	<path class="st12" d="M463.48,547.34c0.05-2.13,0.91-4.7,4.46-5.01c3.69-0.32,10.51,7.99,10.63,12.64
		c0.09,3.74-1.93,5.87-5.35,6.29C469.01,561.79,463.52,554.24,463.48,547.34z"/>
	<path class="st12" d="M214.63,484.06c0.28,4.54-2.05,7.78-6.09,7.48c-8-0.61-5.95-8.12-7.39-12.99c-1.01-3.41,0.58-6.73,4.48-6.02
		C211.65,473.61,213.55,478.74,214.63,484.06z"/>
	<path class="st12" d="M114.77,664.85c-6.64-1.41-8.53-6.81-10.01-12.28c-0.66-2.45,0.69-4.4,3.58-4.51
		c3.84-0.14,11.19,7.18,11.33,11.26C119.79,662.68,118.24,664.62,114.77,664.85z"/>
	<path class="st12" d="M425.76,400.09c-4.06,4.67-6.69,7.81-9.44,10.82c-1.9,2.08-4.46,2.55-6.84,1.25
		c-2.25-1.23-3.84-3.4-3.39-6.17c0.45-2.74,2.52-4.46,5.12-4.82C415.3,400.61,419.46,400.53,425.76,400.09z"/>
	<path class="st13" d="M397.65,502.73c-2.03,4.18-4.11,7.43-7.13,10.01c-2.13,1.82-4.64,2.21-7.02,0.94
		c-2.04-1.09-3.27-3.1-2.93-5.59c0.39-2.77,2.14-4.85,4.74-5.26C389.08,502.23,392.94,501.17,397.65,502.73z"/>
	<path class="st13" d="M354.41,446.63c2.9,3.74,5.46,6.96,7.92,10.26c1.45,1.95,2.16,4.25-0.13,5.92c-2.32,1.69-5.02,1.35-6.68-1.02
		C352.39,457.32,350.85,452.52,354.41,446.63z"/>
	<path class="st13" d="M424.11,640.77c4.37,1.02,7.12,4.04,8.5,8.16c0.87,2.58-0.95,4.75-3.33,4.71c-6.03-0.1-5.57-5.79-7.35-9.51
		C420.9,641.96,421.99,641.1,424.11,640.77z"/>
	<path class="st11" d="M348.88,623.6c3.71,5.36,2.94,10.38,1.54,15.43c-0.46,1.65-1.41,3.14-3.49,2.79
		c-2.06-0.34-2.54-2.12-2.6-3.78C344.14,633.01,345.03,628.27,348.88,623.6z"/>
	<path class="st11" d="M287.41,470.59c1.79-4.75,5.31-6.76,9.23-8.24c2.28-0.86,4.62-0.84,5.66,1.8c1.1,2.78-0.66,3.88-3.12,4.73
		C295.48,470.15,291.79,470.8,287.41,470.59z"/>
	<path class="st12" d="M191.63,648.03c-3.19-0.05-7.11-0.53-7-4.15c0.09-3.2,3.8-4.34,7.11-4.41c3.05-0.07,5.83,0.44,5.76,4.26
		C197.43,647.44,194.67,648.04,191.63,648.03z"/>
	<path class="st11" d="M442.68,483.84c4.87-3.05,9.42-3.95,13.87-4.98c2.02-0.47,4.18,0.15,4.71,2.4c0.57,2.43-1.58,3.72-3.41,3.87
		C453.1,485.53,448.18,486.49,442.68,483.84z"/>
	<path class="st13" d="M88.9,604.08c-2.2-0.58-6.33,0.89-5.63-2.71c0.69-3.55,4.69-5.26,8.42-5.84c2.53-0.39,4.64,0.49,4.43,3.48
		C95.79,603.53,92.35,603.92,88.9,604.08z"/>
	<path class="st13" d="M192.2,358.93c-0.86,3.17-2.98,3.58-5.32,3.29c-4.15-0.52-7.56-2.62-8.88-6.54c-0.52-1.53,2.05-2.41,3.8-2.08
		C185.82,354.37,189.99,355.01,192.2,358.93z"/>
	<path class="st11" d="M253.72,600.24c-0.12,3.38-1.72,4.2-3.92,3.91c-4.22-0.57-6.15-3.49-6.46-7.38
		c-0.15-1.88,1.44-3.18,3.31-2.72C250.29,594.94,253.2,596.86,253.72,600.24z"/>
	<path class="st13" d="M340.73,575.63c-0.51,2.67-2.36,3.9-4.79,3.52c-2.93-0.46-6.9-0.97-6.83-4.6c0.04-2.3,3.59-2.81,6.13-2.87
		C338.09,571.61,340.03,572.75,340.73,575.63z"/>
	<path class="st14" d="M123.94,459.27c3.89-1.42,7.73-2.98,11.68-4.2c1.45-0.45,3.72-0.97,4.38,1.01c0.76,2.31-1.05,3.63-3.13,4.08
		C132.64,461.08,128.37,461.97,123.94,459.27z"/>
	<path class="st13" d="M127.96,496.06c3.16-0.76,6.08-1.63,9.05-2.1c2.14-0.34,5.14-0.6,5.31,2.32c0.16,2.76-2.33,4.29-5.11,4.37
		C133.51,500.76,130.1,500.03,127.96,496.06z"/>
	<path class="st11" d="M320.98,509.88c-0.63,2.59-2.11,4.54-4.05,3.82c-3.51-1.31-4.3-4.75-4.28-8.24c0.01-1.68,0.23-3.87,2.58-2.86
		C318.46,503.98,319.59,507.3,320.98,509.88z"/>
	<path class="st14" d="M138,374.14c4.33-1.98,7.72-2.86,10.7,0.46c0.83,0.92,0.54,2.18-0.65,2.81
		C144.05,379.55,141.24,377.51,138,374.14z"/>
	<path class="st11" d="M316.54,433.35c-2.54,3.71-3.71,7.45-8.11,5.97c-1.57-0.53-2.68-2.44-1.7-4.11
		C308.95,431.44,312.48,433.01,316.54,433.35z"/>
	<path class="st11" d="M459.88,617.8c4.37-2.59,6.68-5.25,9.81-2.69c1.53,1.25,1.1,3.17-0.18,4.38
		C466.14,622.67,464.36,618.77,459.88,617.8z"/>
	<path class="st4" d="M286.93,249.04c10.24-0.32,19.79-3.14,28.78-8.01c1.74-0.94,3.97-2.29,5.28-0.38
		c1.69,2.46-0.67,4.17-2.56,5.28C308.52,251.73,298.03,252.82,286.93,249.04z"/>
	<path class="st12" d="M283.54,185.45c6.04-10.82,16.19-14.84,27.64-16.55c3.65-0.55,7.4,0.51,7.78,4.53
		c0.4,4.21-3.7,4.48-6.71,4.48c-10.21,0.03-19.21,3.5-27.56,9.05C284.31,186.47,283.92,185.96,283.54,185.45z"/>
	<path class="st12" d="M284.69,186.97c-0.68,0.05-1.35,0.1-2.03,0.15c0.29-0.56,0.58-1.11,0.87-1.67
		C283.92,185.96,284.31,186.47,284.69,186.97z"/>
</g>
</svg>
